<svg width="80" height="13" viewBox="0 0 80 13" fill="none" xmlns="http://www.w3.org/2000/svg">
<path d="M5.85205 12H3.19336L0.424805 1.45312H3.39111L5.1416 8.93848L6.69434 1.45312H9.36035L11.0596 9.12891L12.9712 1.45312H14.7656L11.6968 12H9.03076L7.54395 5.26172L5.85205 12ZM19.1748 12H16.2671V1.45312H21.9653C22.4585 1.45312 22.9297 1.51904 23.3789 1.65088C23.833 1.78271 24.2334 1.98291 24.5801 2.25146C24.9268 2.51514 25.2026 2.84961 25.4077 3.25488C25.6177 3.65527 25.7227 4.12646 25.7227 4.66846C25.7227 5.01025 25.6738 5.33252 25.5762 5.63525C25.4785 5.93311 25.3418 6.20654 25.166 6.45557C24.9951 6.70459 24.7925 6.9292 24.5581 7.12939C24.3237 7.32959 24.0674 7.49805 23.7891 7.63477C23.5107 7.77148 23.2153 7.87646 22.9028 7.94971C22.5952 8.02295 22.2827 8.05957 21.9653 8.05957H19.1748V12ZM22.7783 4.66846C22.7783 3.98975 22.605 3.45752 22.2583 3.07178C21.9165 2.68115 21.3989 2.48584 20.7056 2.48584H19.1748V7.06348H20.7056C21.0767 7.06348 21.3916 7.00488 21.6504 6.8877C21.9141 6.76562 22.1289 6.59717 22.2949 6.38232C22.4609 6.16748 22.583 5.91602 22.6611 5.62793C22.7393 5.33496 22.7783 5.01514 22.7783 4.66846ZM31.9995 7.39307H27.0776V6.04541H31.9995V7.39307ZM35.4565 12H34.1089V1.45312H35.9985L42.4072 8.69678V1.45312H43.7476V12H41.8579L35.4565 4.76367V12ZM54.7485 7.75195C54.7485 8.19141 54.6899 8.604 54.5728 8.98975C54.4556 9.37549 54.292 9.73193 54.082 10.0591C53.877 10.3862 53.6279 10.6816 53.335 10.9453C53.042 11.2041 52.7197 11.4238 52.3682 11.6045C52.0215 11.7852 51.6479 11.9243 51.2476 12.022C50.8521 12.1196 50.4443 12.1685 50.0244 12.1685C49.6045 12.1685 49.1968 12.1196 48.8013 12.022C48.4058 11.9243 48.0322 11.7852 47.6807 11.6045C47.334 11.4238 47.0142 11.2041 46.7212 10.9453C46.4282 10.6816 46.1768 10.3862 45.9668 10.0591C45.7617 9.73193 45.6006 9.37549 45.4834 8.98975C45.3662 8.59912 45.3076 8.18652 45.3076 7.75195C45.3076 7.31738 45.3662 6.90723 45.4834 6.52148C45.6006 6.13086 45.7617 5.77197 45.9668 5.44482C46.1768 5.11768 46.4282 4.82471 46.7212 4.56592C47.0142 4.30225 47.334 4.08008 47.6807 3.89941C48.0322 3.71875 48.4058 3.57959 48.8013 3.48193C49.1968 3.38428 49.6045 3.33545 50.0244 3.33545C50.4443 3.33545 50.8521 3.38428 51.2476 3.48193C51.6479 3.57959 52.0215 3.71875 52.3682 3.89941C52.7197 4.08008 53.042 4.30225 53.335 4.56592C53.6279 4.82471 53.877 5.11768 54.082 5.44482C54.292 5.77197 54.4556 6.13086 54.5728 6.52148C54.6899 6.90723 54.7485 7.31738 54.7485 7.75195ZM52.229 7.75195C52.229 7.51758 52.2144 7.271 52.1851 7.01221C52.1606 6.74854 52.1167 6.49219 52.0532 6.24316C51.9897 5.98926 51.9019 5.74756 51.7896 5.51807C51.6821 5.28369 51.5479 5.08105 51.3867 4.91016C51.2256 4.73438 51.0327 4.59521 50.8081 4.49268C50.5835 4.38525 50.3223 4.33154 50.0244 4.33154C49.7412 4.33154 49.4897 4.38525 49.27 4.49268C49.0503 4.6001 48.8574 4.74414 48.6914 4.9248C48.5303 5.10059 48.3936 5.30566 48.2812 5.54004C48.1738 5.77441 48.0859 6.01855 48.0176 6.27246C47.9492 6.52148 47.9004 6.77539 47.8711 7.03418C47.8418 7.28809 47.8271 7.52734 47.8271 7.75195C47.8271 7.97656 47.8418 8.21826 47.8711 8.47705C47.9004 8.73096 47.9492 8.98486 48.0176 9.23877C48.0859 9.49268 48.1738 9.73682 48.2812 9.97119C48.3936 10.2007 48.5303 10.4058 48.6914 10.5864C48.8574 10.7622 49.0503 10.9038 49.27 11.0112C49.4897 11.1187 49.7412 11.1724 50.0244 11.1724C50.3174 11.1724 50.5762 11.1211 50.8008 11.0186C51.0254 10.9111 51.2183 10.7695 51.3794 10.5938C51.5454 10.418 51.6821 10.2153 51.7896 9.98584C51.897 9.75635 51.9824 9.51465 52.0459 9.26074C52.1143 9.00684 52.1606 8.75049 52.1851 8.4917C52.2144 8.23291 52.229 7.98633 52.229 7.75195ZM59.2822 12H56.7993V4.52197H55.2612V3.54053H56.7993V0.427734H59.2822V3.54053H61.8457V4.52197H59.2822V12ZM64.6509 7.98633C64.9536 8.05469 65.2563 8.1084 65.5591 8.14746C65.8618 8.18652 66.167 8.20605 66.4746 8.20605C66.7969 8.20605 67.0947 8.17676 67.3682 8.11816C67.6465 8.05469 67.8857 7.95215 68.0859 7.81055C68.291 7.66406 68.4521 7.47119 68.5693 7.23193C68.6865 6.99268 68.7451 6.69482 68.7451 6.33838C68.7451 6.05029 68.7061 5.78662 68.6279 5.54736C68.5498 5.30811 68.4326 5.10303 68.2764 4.93213C68.125 4.76123 67.937 4.62939 67.7124 4.53662C67.4878 4.43896 67.2266 4.39014 66.9287 4.39014C66.6504 4.39014 66.3989 4.44141 66.1743 4.54395C65.9546 4.64648 65.7593 4.78564 65.5884 4.96143C65.4224 5.13232 65.2783 5.33252 65.1562 5.56201C65.0391 5.7915 64.9414 6.03076 64.8633 6.27979C64.7852 6.52881 64.729 6.78027 64.6948 7.03418C64.6606 7.28809 64.6436 7.52734 64.6436 7.75195C64.6436 7.79102 64.6436 7.83008 64.6436 7.86914C64.6436 7.9082 64.646 7.94727 64.6509 7.98633ZM70.752 6.31641C70.752 6.66309 70.6958 6.97314 70.5835 7.24658C70.4712 7.51514 70.3174 7.75195 70.1221 7.95703C69.9316 8.16211 69.7095 8.33545 69.4556 8.47705C69.2017 8.61865 68.9307 8.73584 68.6426 8.82861C68.3545 8.9165 68.0566 8.97998 67.749 9.01904C67.4463 9.05811 67.1509 9.07764 66.8628 9.07764C66.4966 9.07764 66.1353 9.05322 65.7788 9.00439C65.4224 8.95068 65.0708 8.86768 64.7241 8.75537C64.7778 9.07764 64.8633 9.38525 64.9805 9.67822C65.0977 9.96631 65.2539 10.2202 65.4492 10.4399C65.6445 10.6548 65.8838 10.8257 66.167 10.9526C66.4551 11.0796 66.7944 11.1431 67.1851 11.1431C67.4438 11.1431 67.6904 11.104 67.9248 11.0259C68.1592 10.9478 68.374 10.8379 68.5693 10.6963C68.7646 10.5547 68.9355 10.3862 69.082 10.1909C69.2334 9.99561 69.3555 9.77832 69.4482 9.53906L70.5176 9.93457C70.3564 10.3203 70.1343 10.6548 69.8511 10.938C69.5728 11.2163 69.2554 11.4482 68.8989 11.6338C68.5474 11.8145 68.1714 11.9487 67.771 12.0366C67.3755 12.1245 66.9824 12.1685 66.5918 12.1685C65.9473 12.1685 65.3516 12.061 64.8047 11.8462C64.2578 11.6265 63.7866 11.3213 63.3911 10.9307C62.9956 10.54 62.6855 10.0737 62.4609 9.53174C62.2363 8.98975 62.124 8.39648 62.124 7.75195C62.124 7.10742 62.2363 6.51416 62.4609 5.97217C62.6855 5.43018 62.9956 4.96387 63.3911 4.57324C63.7866 4.18262 64.2578 3.87988 64.8047 3.66504C65.3516 3.44531 65.9473 3.33545 66.5918 3.33545C66.9043 3.33545 67.2241 3.35742 67.5513 3.40137C67.8784 3.44531 68.1958 3.51611 68.5034 3.61377C68.811 3.70654 69.1016 3.82861 69.375 3.97998C69.6484 4.13135 69.8853 4.31934 70.0854 4.54395C70.2905 4.76367 70.4517 5.02002 70.5688 5.31299C70.6909 5.60596 70.752 5.94043 70.752 6.31641ZM79.5776 9.29736C79.5776 9.66846 79.5239 9.99805 79.4165 10.2861C79.3091 10.5742 79.1626 10.8257 78.9771 11.0405C78.7915 11.2505 78.5718 11.4287 78.3179 11.5752C78.064 11.7168 77.7905 11.8315 77.4976 11.9194C77.2095 12.0073 76.9067 12.0708 76.5894 12.1099C76.272 12.1489 75.957 12.1685 75.6445 12.1685C75.2246 12.1685 74.8535 12.1416 74.5312 12.0879C74.209 12.0342 73.9014 11.9487 73.6084 11.8315C73.3154 11.7095 73.0225 11.5532 72.7295 11.3628C72.4414 11.1724 72.1191 10.9404 71.7627 10.667L73.2056 9.48779C73.3374 9.73682 73.5107 9.96387 73.7256 10.1689C73.9453 10.3691 74.1724 10.5425 74.4067 10.689C74.6411 10.8354 74.8682 10.9478 75.0879 11.0259C75.3076 11.104 75.4858 11.1431 75.6226 11.1431C75.7349 11.1431 75.8618 11.1406 76.0034 11.1357C76.145 11.126 76.2891 11.1113 76.4355 11.0918C76.582 11.0674 76.7261 11.0332 76.8677 10.9893C77.0093 10.9453 77.1338 10.8867 77.2412 10.8135C77.3535 10.7354 77.4414 10.6401 77.5049 10.5278C77.5732 10.4106 77.6074 10.2715 77.6074 10.1104C77.6074 9.94434 77.5635 9.80029 77.4756 9.67822C77.3926 9.55127 77.2827 9.44141 77.146 9.34863C77.0093 9.25586 76.853 9.17773 76.6772 9.11426C76.5015 9.05078 76.3232 8.99463 76.1426 8.9458C75.9668 8.89697 75.7959 8.85547 75.6299 8.82129C75.4639 8.78223 75.3198 8.74561 75.1978 8.71143C74.9731 8.64795 74.7363 8.58447 74.4873 8.521C74.2383 8.45264 73.9917 8.37695 73.7476 8.29395C73.5034 8.20605 73.269 8.10352 73.0444 7.98633C72.8247 7.86914 72.6294 7.72998 72.4585 7.56885C72.2925 7.40283 72.1582 7.20996 72.0557 6.99023C71.958 6.76562 71.9092 6.50439 71.9092 6.20654C71.9092 5.65967 72.0166 5.20312 72.2314 4.83691C72.4512 4.46582 72.7393 4.17041 73.0957 3.95068C73.4521 3.72607 73.8574 3.56738 74.3115 3.47461C74.7656 3.38184 75.2271 3.33545 75.6958 3.33545C76.0181 3.33545 76.3574 3.36963 76.7139 3.43799C77.0703 3.50146 77.417 3.59912 77.7539 3.73096C78.0908 3.85791 78.4058 4.01416 78.6987 4.19971C78.9917 4.38525 79.2358 4.59766 79.4312 4.83691L77.9883 6.02344C77.8809 5.73047 77.7393 5.479 77.5635 5.26904C77.3926 5.05908 77.2046 4.88818 76.9995 4.75635C76.7993 4.61963 76.5918 4.51953 76.377 4.45605C76.167 4.39258 75.9717 4.36084 75.791 4.36084C75.6152 4.36084 75.4175 4.36816 75.1978 4.38281C74.978 4.39746 74.7705 4.43896 74.5752 4.50732C74.3848 4.57568 74.2212 4.68066 74.0845 4.82227C73.9526 4.95898 73.8867 5.14941 73.8867 5.39355C73.8867 5.56934 73.9258 5.7207 74.0039 5.84766C74.0869 5.96973 74.1943 6.07715 74.3262 6.16992C74.458 6.25781 74.6069 6.3335 74.7729 6.39697C74.9438 6.45557 75.1172 6.50928 75.293 6.55811C75.4688 6.60205 75.6396 6.64111 75.8057 6.67529C75.9717 6.70947 76.1206 6.74609 76.2524 6.78516C76.4771 6.84863 76.7139 6.91455 76.9629 6.98291C77.2168 7.04639 77.4658 7.12207 77.71 7.20996C77.9541 7.29297 78.1885 7.39307 78.4131 7.51025C78.6426 7.62256 78.8428 7.76172 79.0137 7.92773C79.1846 8.09375 79.3213 8.28906 79.4238 8.51367C79.5264 8.7334 79.5776 8.99463 79.5776 9.29736Z" fill="#EC7160"/>
</svg>
